<svg width="93" height="34" viewBox="0 0 93 34" fill="none" xmlns="http://www.w3.org/2000/svg">
<g clip-path="url(#clip0_1002_72)">
<path d="M45.4698 9.21924C45.209 8.28317 44.5123 7.42404 43.3155 6.6504C42.1401 5.89385 40.5458 5.25698 38.554 4.73551C36.6989 4.27817 34.331 4.00034 31.4586 3.89775C31.4586 3.87638 31.4373 3.87638 31.4202 3.87638C30.4029 3.65839 29.0907 3.65839 27.4536 3.87638V3.89775C20.1788 4.11574 14.2632 5.19286 9.67686 7.12484C5.71032 8.81746 3.14147 10.2536 1.98314 11.4291C0.0981801 13.3439 -0.44038 15.994 0.354638 19.422C0.555529 18.4859 0.991507 17.4473 1.68822 16.3146C3.08163 13.9851 5.07773 12.2497 7.66795 11.1341C14.7419 8.00535 21.1191 6.32982 26.7569 6.11184C26.1201 8.08656 25.543 9.89886 25.0045 11.5701C23.8675 11.412 22.9699 11.3307 22.5339 11.3692C22.8331 11.4291 23.6709 11.7069 24.8036 12.1258C23.8889 14.8955 23.0896 17.2677 22.4142 19.2211C23.5897 19.0202 24.8036 18.8236 26.0004 18.6227C26.7185 16.8104 27.4152 15.0366 28.052 13.3012C31.121 14.3954 34.4506 15.5922 35.1645 15.6521C37.7931 15.87 38.9515 15.4725 40.3449 15.152C42.1572 14.2757 43.931 13.3568 44.7303 12.2625C45.4869 11.1854 45.7262 10.1895 45.4655 9.21497L45.4698 9.21924ZM35.1687 12.8054C33.8522 12.7669 31.1423 12.3865 28.5521 12.0104C29.33 9.97579 30.0652 8.00535 30.7448 6.11184C34.0147 6.23152 36.622 6.59056 38.5582 7.20605C40.7894 7.86429 41.9264 8.82174 41.9264 10.057C41.9264 11.2923 37.4042 13.1259 35.173 12.8054H35.1687Z" fill="#8B8888"/>
<path d="M36.8444 16.9307C36.028 17.0717 30.3475 18.4651 25.5859 19.6619C25.727 19.3243 25.8638 18.9652 26.0048 18.6276C31.1853 17.7727 36.1263 16.9948 36.8444 16.9349V16.9307Z" fill="#8B8888"/>
<path d="M50.2357 20.7564C49.975 21.7736 49.2783 22.8679 48.184 24.0433C46.1709 26.2745 43.5806 28.2065 40.392 29.882C36.6477 31.814 32.1213 32.8526 26.8425 32.9894C22.7178 33.1091 18.3324 32.6688 13.7119 31.6729C11.2414 31.1728 9.20679 30.1598 7.59538 28.604C6.83883 27.8859 6.36011 27.1507 6.12075 26.3942C5.86002 25.6376 5.9626 24.9195 6.39858 24.2613C7.43296 22.7482 9.68551 21.6112 13.1349 20.8333C13.8529 20.6752 17.8793 19.9784 22.4229 19.2176C22.2647 19.6963 22.1023 20.1537 21.9442 20.5726C20.4311 20.953 19.3326 21.2308 18.9735 21.3291C15.0284 22.1241 10.1258 23.7014 9.86503 24.9537C9.6043 26.33 9.84366 27.108 11.8184 27.9414C13.5324 28.7194 15.9431 29.2152 19.0505 29.4374C21.9014 29.6554 24.8507 29.6383 27.9196 29.3562C30.9672 29.1169 33.3993 28.698 35.2714 28.0996C38.8362 26.9455 41.6487 25.1503 43.7003 22.7012C44.5552 21.6454 45.0766 20.688 45.2134 19.8502C45.3545 18.9526 45.0724 18.3157 44.3372 17.9353C42.8241 17.1403 40.4134 17.3583 37.1051 18.6107C34.1772 19.7476 31.4844 21.2607 29.0352 23.1329C28.6163 23.4705 27.5991 24.3468 26.0047 25.7445C24.5301 27.0182 23.7736 27.6764 23.7351 27.6978C22.9401 27.9756 22.4998 28.1167 22.4614 28.0953C21.4056 27.5183 20.7687 27.1379 20.5465 26.9584C19.9481 26.4796 19.7686 25.9625 20.0293 25.4025C20.4695 24.5049 21.1064 22.8935 21.9442 20.5597C22.9999 20.2819 24.2566 19.9613 25.5901 19.645C24.6925 21.8549 23.7565 24.1502 22.7819 26.501C23.7565 26.3215 24.8165 25.8043 25.9706 24.9452C26.2099 24.7443 26.7057 24.3681 27.4666 23.7911C28.065 23.2739 28.5608 22.8935 28.9412 22.6371C32.6256 20.0682 35.7971 18.273 38.4472 17.2386C43.4481 15.2853 47.1539 15.5246 49.5646 17.9353C50.3212 18.6919 50.5605 19.6493 50.2443 20.7435L50.2357 20.7564Z" fill="#8B8888"/>
<path d="M26.0004 18.6273C25.8593 18.965 25.7226 19.324 25.5815 19.6617C24.2479 19.9823 22.9913 20.2986 21.9355 20.5764C22.0937 20.1575 22.2561 19.7002 22.4143 19.2214C23.5897 19.0206 24.8036 18.8239 26.0004 18.623V18.6273Z" fill="#8B8888"/>
<path d="M55.5143 20.3669C54.0183 23.3803 53.0908 25.4063 52.7275 26.445C52.9455 26.445 53.6422 25.915 54.8261 24.8549C56.2238 23.6239 57.6002 22.2391 58.9508 20.6961C58.9508 21.7604 58.7328 22.5425 58.3011 23.0469C57.3864 24.0599 56.2879 25.2311 55.0099 26.5561C54.7919 26.7741 54.5141 27.0861 54.1764 27.4964C53.8131 27.9324 53.561 28.2316 53.4156 28.3983C52.8386 29.001 52.3428 29.3045 51.9324 29.3045C51.7401 29.3045 51.0861 29.0138 49.9791 28.4368C49.1584 27.9794 48.7139 27.5819 48.6412 27.24C48.5216 26.6373 49.4363 23.7693 51.3896 18.6316C53.343 13.5195 54.4286 11.049 54.6466 11.2157C54.839 11.3866 55.1895 11.626 55.6938 11.938C56.2965 12.3013 56.7068 12.5664 56.9248 12.7331C57.8181 13.3614 58.1772 13.9854 58.0105 14.6137C57.7455 15.6994 56.912 17.6143 55.5143 20.3669ZM55.2963 9.51451C55.8263 8.21085 56.4546 6.76614 57.177 5.17611C57.9506 3.58607 58.3567 2.81243 58.408 2.85944C58.6003 3.03041 58.9722 3.29542 59.5279 3.65446C60.1049 4.04342 60.5152 4.3298 60.7589 4.52214C61.7248 5.27014 62.1224 5.9583 61.9514 6.58662C61.6607 7.69794 61.1051 8.80498 60.2887 9.91629C60.0493 10.2069 59.2372 10.6515 57.8652 11.2541L55.2963 9.51451Z" fill="#252525"/>
<path d="M70.3076 6.69364C71.1539 4.06495 71.8378 1.9791 72.3678 0.436079C72.3678 0.389062 73.0218 0.820766 74.3212 1.73974C75.6462 2.65444 76.2489 3.26993 76.1292 3.58623C73.7655 10.1473 70.8718 17.5503 67.4481 25.7954C67.8328 25.7741 68.1106 25.6886 68.2816 25.5433C68.3286 25.5219 68.6321 25.3039 69.1835 24.8893C69.6408 24.5516 70.0383 24.2396 70.376 23.9489C71.4617 23.0086 72.4234 21.9229 73.2697 20.6919C73.1714 21.7049 72.9534 22.4871 72.62 23.0428C72.1114 23.8635 71.1839 24.9833 69.8332 26.4067C68.2645 28.048 67.5037 28.8558 67.555 28.8302C66.6617 29.1679 66.1787 29.326 66.1103 29.3004C64.8066 28.6036 64.0244 28.1078 63.7594 27.8172C62.5284 28.9499 61.4299 29.42 60.4682 29.2277C59.4552 29.0097 58.2712 28.1548 56.9205 26.6588C56.5829 26.2742 56.5359 25.1543 56.7752 23.295C57.0402 21.534 57.4719 19.7986 58.0789 18.0889C58.4892 16.8365 59.1261 15.5799 59.9938 14.3275C60.8871 13.0709 61.7676 12.1434 62.6353 11.5407C63.1653 11.156 64.516 11.1047 66.6873 11.3954C66.9523 11.4424 67.2045 11.5663 67.4481 11.7587C67.8072 12.0707 68.0764 12.5537 68.2431 13.2034C68.4355 12.5751 69.1236 10.408 70.3033 6.69364H70.3076ZM67.5208 15.3363C67.5208 14.2976 67.3284 13.3701 66.9438 12.5494C66.5078 12.2844 66.1701 12.2716 65.9308 12.5109C64.9648 13.4256 64.1484 14.4429 63.473 15.55C62.3147 17.4563 61.229 20.0209 60.216 23.2522C59.9254 24.1456 59.7587 25.0346 59.7117 25.9279C59.6646 26.9922 59.8313 27.7488 60.216 28.2061C60.5281 28.5438 60.9384 28.5566 61.447 28.2446C61.9044 27.954 62.5583 27.3043 63.4004 26.2913C64.4348 24.1456 65.8111 20.5039 67.5251 15.3704V15.332L67.5208 15.3363Z" fill="#252525"/>
<path d="M76.963 19.4271C76.8177 19.2818 76.5398 18.9441 76.1295 18.4141C75.5268 19.8118 74.9455 21.4275 74.3941 23.2612C74.1035 24.1545 73.9368 25.0435 73.8855 25.9369C73.8128 27.0225 73.9838 27.7834 74.3941 28.2151C74.4882 28.339 74.5608 28.3946 74.6121 28.3946C74.9712 28.3219 75.4542 27.8774 76.0568 27.0567C76.7322 26.1848 77.3477 25.176 77.9033 24.0177C77.0827 24.0177 76.5997 24.0049 76.4586 23.9835C76.0953 23.9365 75.9884 23.586 76.1338 22.9363C76.1808 22.7183 76.651 22.261 77.5443 21.56C78.1726 21.1026 78.63 20.8248 78.9206 20.7308C79.0403 20.6838 79.113 20.6838 79.1386 20.7308C79.378 20.9488 79.6088 21.201 79.8268 21.4916C80.2371 22.0686 80.3696 22.5516 80.2243 22.9406H80.1901C81.2031 22.8423 88.6147 23.8938 89.3883 23.8425C89.0037 24.3981 88.2471 25.3043 87.9351 25.6975C87.3068 25.5522 80.5619 23.975 79.7926 24.022C79.3566 25.0094 78.7197 26.0865 77.8734 27.2405C76.9074 28.6169 75.8602 29.305 74.7275 29.305C74.6805 29.305 74.4882 29.2195 74.1505 29.0528C73.0648 28.5485 72.039 27.7492 71.0773 26.6635C70.7396 26.2788 70.6926 25.159 70.932 23.2996C71.197 21.5173 71.6287 19.7691 72.2356 18.0551C72.6716 16.8027 73.3213 15.5332 74.189 14.2552C75.0567 13.0029 75.9372 12.0753 76.8305 11.4684C77.1425 11.2504 77.6511 11.1436 78.3521 11.1436C78.5445 11.1436 78.8437 11.1564 79.254 11.1777C79.6643 11.2034 79.9764 11.2162 80.1943 11.2162C80.485 11.2162 81.0749 11.5282 81.9682 12.1566C82.9085 12.8789 83.4043 13.5329 83.4514 14.1099C83.524 15.0246 83.1009 16.1231 82.1862 17.4011C81.6091 18.2218 80.8697 18.8116 79.9806 19.1707C79.8823 19.2433 79.5703 19.3288 79.0403 19.4271C78.365 19.5725 77.882 19.6793 77.5956 19.752C77.4246 19.799 77.2194 19.6921 76.9801 19.4271H76.963ZM80.797 12.7336C80.5064 12.3703 80.2756 12.2762 80.1089 12.4429C78.8052 13.6996 77.6982 15.2426 76.7792 17.072C76.7322 16.978 76.8989 17.4353 77.2878 18.4483C77.4545 18.8586 77.6127 19.0638 77.758 19.0638C78.0957 19.0852 78.6129 18.6791 79.3138 17.8328C79.5318 17.5678 79.7498 17.2772 79.9678 16.9651C80.1858 16.7001 80.2798 16.5676 80.2585 16.5676C80.9082 15.6273 81.2373 14.6399 81.2373 13.6013C81.2373 13.3619 81.0919 13.0713 80.8013 12.7336H80.797ZM76.8561 23.0432C76.8091 23.2141 76.8775 23.2825 77.0741 23.2612C77.1682 23.2612 77.3733 23.2483 77.6896 23.2227C78.0273 23.1757 78.2324 23.15 78.3051 23.15C78.5958 22.4747 78.8351 21.8122 79.0275 21.1625C79.0018 21.1625 78.4975 21.5472 77.5101 22.3208C77.1468 22.6072 76.9331 22.8508 76.8604 23.0432H76.8561Z" fill="#252525"/>
<path d="M92.9831 3.21852C90.5468 9.89923 87.5548 17.5075 84.0114 26.0432C85.6997 24.8379 87.6146 23.0042 89.7646 20.5465C89.7646 21.6322 89.5338 22.4272 89.0764 22.9358C88.1575 23.9702 87.0761 25.1542 85.8194 26.4792C85.6014 26.6972 85.3108 27.022 84.9517 27.458C84.5671 27.894 84.2892 28.1932 84.1183 28.3642C83.5412 28.9925 83.0668 29.3045 82.7077 29.3045C82.6821 29.3045 82.4897 29.2447 82.1307 29.125C81.7204 28.9583 81.3485 28.7617 81.0108 28.548C79.9765 27.894 79.6516 27.1503 80.0363 26.304C80.639 25.0986 83.6652 16.332 89.1149 0.00852806C89.1363 -0.0128434 89.8116 0.444506 91.1409 1.38058C92.4916 2.29527 93.1071 2.91077 92.9874 3.22707L92.9831 3.21852Z" fill="#252525"/>
</g>
<defs>
<clipPath id="clip0_1002_72">
<rect width="93" height="33.0103" fill="white"/>
</clipPath>
</defs>
</svg>
