<svg width="153" height="55" viewBox="0 0 153 55" fill="none" xmlns="http://www.w3.org/2000/svg">
<path d="M74.7153 15.1363C74.2869 13.5981 73.1421 12.1864 71.1756 10.9152C69.2441 9.67206 66.6244 8.62558 63.3515 7.76872C60.3034 7.01722 56.4124 6.5607 51.6927 6.39214C51.6927 6.35702 51.6576 6.35702 51.6295 6.35702C49.9579 5.99883 47.8017 5.99883 45.1118 6.35702V6.39214C33.158 6.75033 23.4376 8.52023 15.9015 11.6948C9.38383 14.4761 5.16278 16.8359 3.25944 18.7673C0.162129 21.9138 -0.722817 26.2683 0.583532 31.9011C0.913631 30.3629 1.63002 28.6563 2.77483 26.7951C5.06445 22.9673 8.34437 20.1158 12.6005 18.2827C24.2242 13.1416 34.7031 10.3884 43.967 10.0303C42.9205 13.2751 41.9723 16.253 41.0874 18.9991C39.2192 18.7392 37.7443 18.6058 37.0279 18.669C37.5195 18.7673 38.8961 19.2239 40.7573 19.9122C39.2543 24.4633 37.9409 28.3613 36.8312 31.571C38.7626 31.2409 40.7573 30.9178 42.7238 30.5877C43.9038 27.6098 45.0486 24.6951 46.0951 21.8436C51.1378 23.6416 56.6091 25.6081 57.782 25.7064C62.1013 26.0646 64.0047 25.4115 66.2943 24.8847C69.2722 23.4449 72.1869 21.9349 73.5003 20.1369C74.7434 18.367 75.1367 16.7306 74.7083 15.1292L74.7153 15.1363ZM57.789 21.0289C55.6258 20.9657 51.173 20.3406 46.9168 19.7225C48.195 16.3794 49.4031 13.1416 50.5198 10.0303C55.8927 10.2269 60.1769 10.8169 63.3585 11.8282C67.0247 12.9098 68.893 14.4831 68.893 16.5128C68.893 18.5426 61.4622 21.5556 57.796 21.0289H57.789Z" fill="#8B8888"/>
<path d="M82.5464 34.0929C82.118 35.7644 80.9732 37.5624 79.1752 39.4939C75.8672 43.1601 71.611 46.3346 66.3716 49.0878C60.2191 52.2624 52.7813 53.9691 44.1075 54.1938C37.3299 54.3905 30.1239 53.667 22.5316 52.0306C18.4721 51.2089 15.129 49.5443 12.4812 46.9878C11.238 45.8079 10.4514 44.5999 10.0581 43.3567C9.62969 42.1136 9.79825 40.9337 10.5146 39.8521C12.2143 37.3658 15.9156 35.4976 21.5835 34.2193C22.7634 33.9594 29.3794 32.8146 36.8453 31.5645C36.5854 32.3511 36.3185 33.1026 36.0587 33.7909C33.5724 34.416 31.7674 34.8725 31.1774 35.034C24.6948 36.3404 16.639 38.932 16.2106 40.9898C15.7822 43.2514 16.1755 44.5296 19.4203 45.8992C22.2367 47.1774 26.1978 47.9922 31.3038 48.3574C35.9884 48.7156 40.8346 48.6875 45.8774 48.2239C50.885 47.8306 54.8813 47.1423 57.9576 46.159C63.8151 44.2627 68.4365 41.3129 71.8077 37.2885C73.2124 35.5537 74.0692 33.9805 74.294 32.6039C74.5257 31.129 74.0622 30.0825 72.8542 29.4574C70.3679 28.1511 66.4067 28.5093 60.9706 30.5671C56.1596 32.4354 51.7349 34.9216 47.7105 37.9979C47.0222 38.5527 45.3506 39.9925 42.7309 42.2892C40.3078 44.3821 39.0647 45.4637 39.0015 45.4989C37.6951 45.9554 36.9717 46.1871 36.9085 46.152C35.1737 45.2039 34.1272 44.5788 33.762 44.2838C32.7788 43.4972 32.4838 42.6474 32.9122 41.7273C33.6356 40.2524 34.6821 37.6046 36.0587 33.7698C37.7935 33.3133 39.8583 32.7865 42.0496 32.2668C40.5747 35.8979 39.0366 39.6694 37.4353 43.5323C39.0366 43.2373 40.7784 42.3875 42.6747 40.9758C43.068 40.6457 43.8827 40.0276 45.1329 39.0795C46.1162 38.2297 46.9309 37.6046 47.556 37.1832C53.6101 32.9621 58.8215 30.0123 63.176 28.3126C71.3933 25.103 77.4826 25.4963 81.4438 29.4574C82.6869 30.7006 83.0802 32.2738 82.5605 34.0718L82.5464 34.0929Z" fill="#8B8888"/>
<path d="M91.2203 33.4532C88.7621 38.4047 87.2381 41.7338 86.6411 43.4405C86.9993 43.4405 88.1441 42.5696 90.0896 40.8278C92.3862 38.805 94.6477 36.5295 96.8671 33.994C96.8671 35.7428 96.5089 37.0281 95.7996 37.8569C94.2966 39.5214 92.4916 41.4458 90.3916 43.6231C90.0334 43.9813 89.5769 44.494 89.022 45.1682C88.425 45.8846 88.0106 46.3763 87.7718 46.6502C86.8237 47.6405 86.009 48.1391 85.3347 48.1391C85.0187 48.1391 83.9441 47.6615 82.125 46.7134C80.7766 45.9619 80.0461 45.3087 79.9267 44.7468C79.7301 43.7565 81.2331 39.0438 84.4428 30.6017C87.6525 22.2018 89.4364 18.1422 89.7946 18.4162C90.1106 18.6971 90.6866 19.0904 91.5153 19.6031C92.5056 20.2001 93.1798 20.6356 93.538 20.9095C95.0059 21.9419 95.5959 22.9673 95.322 23.9998C94.8865 25.7837 93.517 28.9302 91.2203 33.4532ZM90.8621 15.6209C91.733 13.4787 92.7655 11.1048 93.9524 8.49212C95.2237 5.87942 95.8909 4.60819 95.9752 4.68545C96.2912 4.96638 96.9022 5.40183 97.8153 5.9918C98.7634 6.63093 99.4377 7.10149 99.838 7.41754C101.425 8.64664 102.078 9.7774 101.798 10.8098C101.32 12.6359 100.407 14.455 99.0655 16.2811C98.6721 16.7586 97.3377 17.4891 95.0832 18.4794L90.8621 15.6209Z" fill="white"/>
<path d="M115.528 10.9857C116.919 6.66629 118.042 3.23888 118.913 0.703443C118.913 0.626186 119.988 1.33555 122.123 2.84557C124.3 4.34858 125.29 5.35995 125.094 5.87968C121.21 16.6606 116.455 28.8251 110.829 42.3732C111.461 42.3381 111.918 42.1976 112.199 41.9588C112.276 41.9237 112.775 41.5655 113.681 40.8842C114.432 40.3294 115.085 39.8167 115.64 39.3391C117.424 37.7939 119.005 36.01 120.395 33.9873C120.234 35.6518 119.875 36.9371 119.328 37.8501C118.492 39.1986 116.968 41.0387 114.748 43.3775C112.171 46.0745 110.921 47.4019 111.005 47.3598C109.537 47.9146 108.743 48.1745 108.631 48.1323C106.489 46.9875 105.204 46.1728 104.768 45.6952C102.745 47.5564 100.94 48.329 99.3601 48.0129C97.6956 47.6548 95.7501 46.2501 93.5307 43.7919C92.9759 43.1598 92.8986 41.3197 93.2919 38.2645C93.7274 35.3709 94.4368 32.5194 95.4341 29.71C96.1083 27.6522 97.1548 25.5873 98.5805 23.5294C100.048 21.4646 101.495 19.9405 102.921 18.9502C103.792 18.3181 106.011 18.2338 109.579 18.7114C110.015 18.7887 110.429 18.9923 110.829 19.3084C111.419 19.8211 111.862 20.6147 112.136 21.6823C112.452 20.6498 113.582 17.089 115.521 10.9857H115.528ZM110.949 25.187C110.949 23.4803 110.633 21.9562 110.001 20.6077C109.284 20.1723 108.729 20.1512 108.336 20.5445C106.749 22.0475 105.407 23.7191 104.298 25.5381C102.394 28.6706 100.61 32.8846 98.9458 38.1943C98.4682 39.6622 98.1943 41.123 98.117 42.5909C98.0397 44.3397 98.3137 45.5829 98.9458 46.3344C99.4585 46.8892 100.133 46.9103 100.968 46.3976C101.72 45.92 102.795 44.8524 104.178 43.1879C105.878 39.6621 108.139 33.6782 110.956 25.2431V25.1799L110.949 25.187Z" fill="white"/>
<path d="M126.464 31.9082C126.225 31.6694 125.768 31.1145 125.094 30.2437C124.104 32.5403 123.149 35.1951 122.243 38.2082C121.765 39.6761 121.491 41.1369 121.407 42.6048C121.287 44.3887 121.568 45.6389 122.243 46.3483C122.397 46.5519 122.517 46.6432 122.601 46.6432C123.191 46.5239 123.984 45.7934 124.975 44.4449C126.084 43.0122 127.096 41.3546 128.009 39.4513C126.66 39.4513 125.867 39.4302 125.635 39.3951C125.038 39.3179 124.862 38.7419 125.101 37.6744C125.178 37.3162 125.951 36.5647 127.419 35.4129C128.451 34.6614 129.203 34.2048 129.68 34.0503C129.877 33.9731 129.996 33.9731 130.039 34.0503C130.432 34.4085 130.811 34.8229 131.169 35.3005C131.844 36.2486 132.061 37.0423 131.822 37.6814H131.766C133.431 37.5199 145.609 39.2476 146.881 39.1633C146.249 40.0764 145.005 41.5653 144.493 42.2115C143.46 41.9727 132.377 39.3811 131.113 39.4583C130.397 41.0807 129.35 42.8506 127.96 44.7469C126.372 47.0085 124.652 48.1392 122.79 48.1392C122.713 48.1392 122.397 47.9988 121.842 47.7248C120.058 46.8961 118.373 45.5827 116.792 43.7988C116.238 43.1667 116.16 41.3265 116.554 38.2714C116.989 35.3426 117.698 32.4701 118.696 29.6537C119.412 27.5958 120.48 25.5099 121.905 23.4099C123.331 21.352 124.778 19.828 126.246 18.8307C126.759 18.4725 127.594 18.2969 128.746 18.2969C129.062 18.2969 129.554 18.3179 130.228 18.3531C130.902 18.3952 131.415 18.4163 131.773 18.4163C132.251 18.4163 133.22 18.929 134.688 19.9614C136.233 21.1484 137.048 22.2229 137.125 23.1711C137.245 24.6741 136.549 26.4791 135.046 28.5791C134.098 29.9276 132.883 30.8968 131.422 31.4868C131.261 31.6062 130.748 31.7467 129.877 31.9082C128.767 32.147 127.974 32.3226 127.503 32.442C127.222 32.5192 126.885 32.3436 126.492 31.9082H126.464ZM132.764 20.9096C132.286 20.3126 131.907 20.1581 131.633 20.432C129.491 22.4969 127.672 25.0323 126.162 28.0383C126.084 27.8838 126.358 28.6353 126.997 30.2998C127.271 30.9741 127.531 31.3112 127.77 31.3112C128.325 31.3463 129.175 30.6791 130.327 29.2885C130.685 28.853 131.043 28.3754 131.401 27.8627C131.759 27.4273 131.914 27.2095 131.879 27.2095C132.946 25.6644 133.487 24.042 133.487 22.3353C133.487 21.942 133.248 21.4644 132.771 20.9096H132.764ZM126.288 37.85C126.211 38.1309 126.323 38.2433 126.646 38.2082C126.801 38.2082 127.138 38.1871 127.658 38.145C128.212 38.0677 128.55 38.0256 128.669 38.0256C129.147 36.9159 129.54 35.8272 129.856 34.7597C129.814 34.7597 128.985 35.3918 127.363 36.663C126.766 37.1336 126.414 37.5339 126.295 37.85H126.288Z" fill="white"/>
<path d="M152.787 5.27574C148.784 16.2533 143.868 28.7549 138.045 42.7806C140.819 40.8 143.966 37.787 147.499 33.7485C147.499 35.5325 147.119 36.8388 146.368 37.6746C144.858 39.3743 143.081 41.3197 141.016 43.497C140.658 43.8552 140.18 44.389 139.59 45.1053C138.958 45.8217 138.502 46.3134 138.221 46.5943C137.273 47.6267 136.493 48.1394 135.903 48.1394C135.861 48.1394 135.545 48.0411 134.955 47.8445C134.281 47.5705 133.67 47.2475 133.115 46.8963C131.415 45.8217 130.881 44.5997 131.513 43.209C132.504 41.2284 137.476 26.8235 146.431 0.00117579C146.466 -0.0339411 147.576 0.717561 149.76 2.25568C151.98 3.75869 152.991 4.77005 152.794 5.28978L152.787 5.27574Z" fill="white"/>
</svg>
