<svg width="119" height="119" viewBox="0 0 119 119" fill="none" xmlns="http://www.w3.org/2000/svg">
<path d="M76.021 42.9788C80.3162 42.8499 84.3923 41.053 87.3849 37.9692C90.3776 34.8854 92.0514 30.7573 92.0514 26.4601C92.0514 22.1629 90.3776 18.0348 87.3849 14.951C84.3923 11.8672 80.3162 10.0703 76.021 9.94141H42.9787C38.6834 10.0703 34.6073 11.8672 31.6147 14.951C28.6221 18.0348 26.9483 22.1629 26.9483 26.4601C26.9483 30.7573 28.6221 34.8854 31.6147 37.9692C34.6073 41.053 38.6834 42.8499 42.9787 42.9788C38.6459 43.0538 34.5159 44.8277 31.4784 47.9183C28.4409 51.009 26.7388 55.169 26.7388 59.5024C26.7388 63.8358 28.4409 67.9959 31.4784 71.0865C34.5159 74.1771 38.6459 75.951 42.9787 76.0261C38.667 76.1317 34.5676 77.9187 31.5555 81.0055C28.5434 84.0923 26.8573 88.2343 26.8573 92.5472C26.8573 96.8601 28.5434 101.002 31.5555 104.089C34.5676 107.176 38.667 108.963 42.9787 109.068C47.3604 109.066 51.5618 107.324 54.6597 104.225C57.7576 101.126 59.4985 96.924 59.4998 92.5423V42.9788H76.021Z" fill="black"/>
<path d="M76.0212 76.0213C85.1456 76.0213 92.5423 68.6246 92.5423 59.5002C92.5423 50.3758 85.1456 42.979 76.0212 42.979C66.8968 42.979 59.5 50.3758 59.5 59.5002C59.5 68.6246 66.8968 76.0213 76.0212 76.0213Z" fill="black"/>
</svg>
