<svg width="119" height="119" viewBox="0 0 119 119" fill="none" xmlns="http://www.w3.org/2000/svg">
<path d="M52.2113 53.2027C51.7154 51.6656 51.2692 50.1781 50.7733 48.6411C50.2775 47.104 49.8313 45.666 49.4346 44.2281C49.0379 42.8398 48.6908 41.5506 48.3438 40.3606H48.2446C47.7983 42.4927 47.2529 44.6248 46.5588 46.7569C45.815 49.1369 45.0713 51.6161 44.2779 54.0952C43.5838 56.624 42.84 58.9544 42.0962 61.0369H54.6904C54.3929 59.9907 53.9963 58.7561 53.55 57.4619C53.1038 56.1281 52.6575 54.6902 52.2113 53.2027ZM97.9271 1.4873H21.0729C9.42083 1.4873 0 10.9081 0 22.5602V96.4394C0 108.091 9.42083 117.512 21.0729 117.512H97.9271C109.579 117.512 119 108.091 119 96.4394V22.5602C119 10.9081 109.579 1.4873 97.9271 1.4873ZM72.8875 83.4486H62.5196C62.1775 83.4981 61.8304 83.2502 61.7313 82.9031L57.6654 71.1023H39.2204L35.4521 82.7544C35.3529 83.2006 34.9563 83.4981 34.51 83.4535H25.1883C24.6429 83.4535 24.4942 83.151 24.6429 82.561L40.6087 36.5923C40.7575 36.0965 40.9062 35.5511 41.1046 34.9561C41.3029 33.9148 41.4021 32.824 41.4021 31.7331C41.3525 31.4852 41.5508 31.2373 41.7988 31.1877H54.6408C55.0375 31.1877 55.2358 31.3365 55.2854 31.5844L73.3833 82.6552C73.5321 83.1957 73.3833 83.4486 72.8875 83.4486ZM89.7458 82.7048C89.7458 83.2502 89.5525 83.4981 89.1062 83.4981H79.3829C78.8871 83.4981 78.6392 83.1957 78.6392 82.7048V44.5256C78.6392 44.0298 78.8425 43.8315 79.2887 43.8315H89.1062C89.5525 43.8315 89.7458 44.0794 89.7458 44.5256V82.7048ZM88.7095 37.9311C87.5642 39.1211 85.8783 39.7656 84.1925 39.6665C82.5563 39.7161 80.9696 39.0715 79.7746 37.9311C78.6342 36.6915 78.0392 35.0552 78.0888 33.3694C78.0392 31.6836 78.6838 30.0969 79.8688 28.9565C81.0687 27.8161 82.6554 27.2211 84.2917 27.2211C86.2304 27.2211 87.708 27.8161 88.8037 28.9565C89.8946 30.1465 90.4896 31.7331 90.44 33.3694C90.4896 35.0552 89.8946 36.6915 88.7095 37.9311Z" fill="black"/>
</svg>
