<svg width="342" height="196" viewBox="0 0 342 196" fill="none" xmlns="http://www.w3.org/2000/svg">
<mask id="mask0_1001_1850" style="mask-type:luminance" maskUnits="userSpaceOnUse" x="0" y="0" width="342" height="196">
<path d="M334.315 0H7.68539C3.44087 0 0 3.44126 0 7.68627V188.314C0 192.559 3.44087 196 7.68539 196H334.315C338.559 196 342 192.559 342 188.314V7.68627C342 3.44126 338.559 0 334.315 0Z" fill="white"/>
</mask>
<g mask="url(#mask0_1001_1850)">
<path d="M334.315 0H7.68539C3.44087 0 0 3.44126 0 7.68627V188.314C0 192.559 3.44087 196 7.68539 196H334.315C338.559 196 342 192.559 342 188.314V7.68627C342 3.44126 338.559 0 334.315 0Z" fill="#312E2E"/>
<path d="M0 149.883H46.1124V196H0V149.883Z" fill="#D3BDBD"/>
<path d="M46.1125 196L22.8174 149.883H69.4077L46.1125 196Z" fill="#D3BDBD"/>
<path d="M80.6968 149.883H94.1462L71.0901 196H57.6406L80.6968 149.883Z" fill="#9E9696"/>
<path d="M103.752 149.883H117.202L94.1457 196H80.6963L103.752 149.883Z" fill="#605E5E"/>
<path d="M134.495 149.883H169.079L146.023 196H111.438L134.495 149.883Z" fill="#4D4747"/>
<path d="M192.135 149.883H226.72L203.663 196H169.079L192.135 149.883Z" fill="#D3BDBD"/>
<path d="M342 149.883H203.663V196H342V149.883Z" fill="#D3BDBD"/>
<path opacity="0.65" d="M213.314 176.784L211.73 171.544H212.372L213.614 175.867H213.658L214.896 171.544H215.541L216.769 175.856H216.817L218.059 171.544H218.7L217.117 176.784H216.49L215.248 172.489H215.183L213.941 176.784H213.314ZM221.524 176.784L219.942 171.544H220.583L221.824 175.867H221.869L223.107 171.544H223.752L224.98 175.856H225.028L226.27 171.544H226.911L225.328 176.784H224.7L223.459 172.489H223.394L222.152 176.784H221.524ZM229.735 176.784L228.152 171.544H228.794L230.035 175.867H230.08L231.318 171.544H231.963L233.191 175.856H233.239L234.48 171.544H235.122L233.539 176.784H232.911L231.669 172.489H231.605L230.363 176.784H229.735ZM236.554 176.836C236.42 176.836 236.304 176.788 236.206 176.692C236.11 176.595 236.063 176.479 236.063 176.344C236.063 176.208 236.11 176.092 236.206 175.996C236.304 175.901 236.42 175.853 236.554 175.853C236.69 175.853 236.806 175.901 236.902 175.996C236.997 176.092 237.045 176.208 237.045 176.344C237.045 176.433 237.022 176.515 236.977 176.59C236.934 176.665 236.875 176.725 236.799 176.771C236.727 176.814 236.645 176.836 236.554 176.836ZM239.737 173.509V176.784H239.13V171.544H239.72V172.366H239.774C239.897 172.098 240.088 171.883 240.348 171.721C240.609 171.557 240.932 171.476 241.317 171.476C241.669 171.476 241.978 171.549 242.245 171.697C242.513 171.843 242.721 172.058 242.869 172.342C243.019 172.627 243.094 172.976 243.094 173.39V176.784H242.487V173.427C242.487 172.997 242.366 172.657 242.125 172.407C241.886 172.157 241.566 172.032 241.163 172.032C240.888 172.032 240.643 172.091 240.43 172.209C240.216 172.328 240.046 172.498 239.921 172.721C239.798 172.942 239.737 173.204 239.737 173.509ZM246.637 176.904C246.321 176.904 246.032 176.842 245.77 176.72C245.509 176.595 245.301 176.415 245.146 176.181C244.991 175.944 244.914 175.657 244.914 175.321C244.914 175.062 244.963 174.843 245.061 174.666C245.158 174.488 245.297 174.343 245.477 174.229C245.656 174.115 245.869 174.025 246.115 173.959C246.36 173.894 246.631 173.842 246.927 173.806C247.22 173.77 247.468 173.738 247.67 173.71C247.875 173.683 248.031 173.64 248.138 173.581C248.245 173.522 248.298 173.426 248.298 173.294V173.171C248.298 172.814 248.192 172.533 247.977 172.329C247.766 172.122 247.461 172.018 247.063 172.018C246.686 172.018 246.378 172.101 246.139 172.267C245.902 172.433 245.736 172.629 245.641 172.854L245.064 172.646C245.182 172.359 245.346 172.131 245.555 171.96C245.765 171.787 245.999 171.663 246.258 171.588C246.518 171.511 246.78 171.472 247.046 171.472C247.247 171.472 247.454 171.498 247.67 171.55C247.889 171.603 248.091 171.694 248.278 171.824C248.464 171.951 248.616 172.13 248.731 172.359C248.847 172.587 248.905 172.876 248.905 173.226V176.784H248.298V175.956H248.261C248.188 176.11 248.08 176.26 247.937 176.406C247.793 176.551 247.614 176.671 247.398 176.764C247.182 176.857 246.928 176.904 246.637 176.904ZM246.719 176.348C247.042 176.348 247.322 176.276 247.558 176.133C247.795 175.989 247.976 175.799 248.104 175.563C248.233 175.324 248.298 175.062 248.298 174.775V174.017C248.253 174.061 248.177 174.099 248.07 174.133C247.965 174.168 247.843 174.198 247.705 174.226C247.568 174.251 247.432 174.272 247.295 174.29C247.159 174.309 247.036 174.324 246.927 174.338C246.631 174.374 246.379 174.431 246.169 174.509C245.96 174.586 245.8 174.693 245.688 174.829C245.577 174.964 245.521 175.137 245.521 175.348C245.521 175.667 245.635 175.913 245.862 176.088C246.09 176.261 246.375 176.348 246.719 176.348ZM251.608 173.509V176.784H251.001V169.797H251.608V172.366H251.663C251.786 172.095 251.976 171.879 252.233 171.718C252.492 171.556 252.82 171.476 253.215 171.476C253.57 171.476 253.882 171.548 254.15 171.694C254.418 171.839 254.628 172.054 254.778 172.339C254.928 172.623 255.003 172.973 255.003 173.39V176.784H254.392V173.427C254.392 172.995 254.272 172.655 254.03 172.407C253.792 172.157 253.469 172.032 253.062 172.032C252.782 172.032 252.533 172.091 252.315 172.209C252.096 172.328 251.924 172.498 251.796 172.721C251.671 172.942 251.608 173.204 251.608 173.509ZM258.546 176.904C258.23 176.904 257.941 176.842 257.68 176.72C257.418 176.595 257.21 176.415 257.055 176.181C256.901 175.944 256.823 175.657 256.823 175.321C256.823 175.062 256.872 174.843 256.97 174.666C257.068 174.488 257.206 174.343 257.386 174.229C257.566 174.115 257.778 174.025 258.024 173.959C258.269 173.894 258.54 173.842 258.836 173.806C259.129 173.77 259.377 173.738 259.58 173.71C259.784 173.683 259.94 173.64 260.047 173.581C260.154 173.522 260.207 173.426 260.207 173.294V173.171C260.207 172.814 260.1 172.533 259.887 172.329C259.675 172.122 259.37 172.018 258.972 172.018C258.595 172.018 258.287 172.101 258.048 172.267C257.811 172.433 257.645 172.629 257.55 172.854L256.973 172.646C257.092 172.359 257.255 172.131 257.464 171.96C257.674 171.787 257.908 171.663 258.167 171.588C258.427 171.511 258.689 171.472 258.955 171.472C259.155 171.472 259.363 171.498 259.58 171.55C259.798 171.603 260 171.694 260.187 171.824C260.373 171.951 260.525 172.13 260.641 172.359C260.756 172.587 260.814 172.876 260.814 173.226V176.784H260.207V175.956H260.17C260.097 176.11 259.989 176.26 259.846 176.406C259.702 176.551 259.523 176.671 259.307 176.764C259.091 176.857 258.837 176.904 258.546 176.904ZM258.628 176.348C258.951 176.348 259.23 176.276 259.467 176.133C259.703 175.989 259.886 175.799 260.013 175.563C260.142 175.324 260.207 175.062 260.207 174.775V174.017C260.162 174.061 260.085 174.099 259.979 174.133C259.874 174.168 259.752 174.198 259.614 174.226C259.477 174.251 259.341 174.272 259.204 174.29C259.068 174.309 258.945 174.324 258.836 174.338C258.54 174.374 258.288 174.431 258.078 174.509C257.869 174.586 257.709 174.693 257.598 174.829C257.486 174.964 257.431 175.137 257.431 175.348C257.431 175.667 257.544 175.913 257.771 176.088C257.999 176.261 258.284 176.348 258.628 176.348ZM263.517 169.797V176.784H262.91V169.797H263.517ZM267.669 171.544V172.073H265.168V171.544H267.669ZM265.949 170.288H266.56V175.416C266.56 175.635 266.597 175.806 266.673 175.932C266.748 176.054 266.845 176.142 266.966 176.194C267.086 176.244 267.215 176.269 267.351 176.269C267.431 176.269 267.499 176.265 267.556 176.256C267.613 176.244 267.663 176.233 267.706 176.221L267.836 176.771C267.777 176.794 267.704 176.814 267.617 176.832C267.531 176.853 267.424 176.863 267.297 176.863C267.074 176.863 266.859 176.814 266.652 176.716C266.447 176.618 266.279 176.473 266.147 176.279C266.015 176.086 265.949 175.846 265.949 175.56V170.288ZM271.59 176.894C271.101 176.894 270.678 176.78 270.321 176.552C269.964 176.323 269.688 176.005 269.492 175.6C269.299 175.193 269.202 174.725 269.202 174.195C269.202 173.667 269.299 173.198 269.492 172.789C269.688 172.378 269.957 172.055 270.301 171.824C270.646 171.589 271.046 171.472 271.498 171.472C271.782 171.472 272.057 171.524 272.32 171.629C272.584 171.732 272.82 171.889 273.03 172.104C273.241 172.315 273.408 172.582 273.531 172.905C273.654 173.226 273.715 173.606 273.715 174.045V174.345H269.622V173.809H273.094C273.094 173.473 273.026 173.17 272.89 172.902C272.756 172.631 272.568 172.417 272.327 172.26C272.088 172.104 271.812 172.025 271.498 172.025C271.166 172.025 270.874 172.114 270.621 172.291C270.369 172.469 270.171 172.703 270.028 172.994C269.887 173.285 269.815 173.603 269.813 173.949V174.27C269.813 174.686 269.884 175.05 270.028 175.362C270.173 175.671 270.379 175.911 270.645 176.082C270.911 176.252 271.226 176.338 271.59 176.338C271.838 176.338 272.055 176.299 272.242 176.221C272.43 176.144 272.589 176.041 272.716 175.911C272.845 175.779 272.943 175.635 273.01 175.478L273.586 175.665C273.506 175.886 273.375 176.09 273.194 176.276C273.014 176.463 272.789 176.613 272.518 176.726C272.25 176.838 271.941 176.894 271.59 176.894ZM276.998 176.904C276.681 176.904 276.393 176.842 276.131 176.72C275.87 176.595 275.661 176.415 275.507 176.181C275.352 175.944 275.275 175.657 275.275 175.321C275.275 175.062 275.324 174.843 275.422 174.666C275.519 174.488 275.658 174.343 275.838 174.229C276.017 174.115 276.23 174.025 276.476 173.959C276.721 173.894 276.992 173.842 277.288 173.806C277.581 173.77 277.829 173.738 278.031 173.71C278.236 173.683 278.392 173.64 278.498 173.581C278.606 173.522 278.659 173.426 278.659 173.294V173.171C278.659 172.814 278.552 172.533 278.338 172.329C278.127 172.122 277.822 172.018 277.424 172.018C277.046 172.018 276.738 172.101 276.5 172.267C276.263 172.433 276.097 172.629 276.001 172.854L275.425 172.646C275.543 172.359 275.707 172.131 275.916 171.96C276.125 171.787 276.36 171.663 276.619 171.588C276.878 171.511 277.141 171.472 277.407 171.472C277.607 171.472 277.815 171.498 278.031 171.55C278.249 171.603 278.452 171.694 278.638 171.824C278.825 171.951 278.976 172.13 279.092 172.359C279.208 172.587 279.266 172.876 279.266 173.226V176.784H278.659V175.956H278.621C278.549 176.11 278.441 176.26 278.298 176.406C278.154 176.551 277.974 176.671 277.758 176.764C277.542 176.857 277.289 176.904 276.998 176.904ZM277.079 176.348C277.403 176.348 277.682 176.276 277.919 176.133C278.155 175.989 278.337 175.799 278.465 175.563C278.594 175.324 278.659 175.062 278.659 174.775V174.017C278.613 174.061 278.537 174.099 278.43 174.133C278.326 174.168 278.204 174.198 278.065 174.226C277.929 174.251 277.793 174.272 277.656 174.29C277.519 174.309 277.397 174.324 277.288 174.338C276.992 174.374 276.739 174.431 276.53 174.509C276.321 174.586 276.161 174.693 276.049 174.829C275.938 174.964 275.882 175.137 275.882 175.348C275.882 175.667 275.996 175.913 276.223 176.088C276.451 176.261 276.736 176.348 277.079 176.348ZM281.362 176.784V171.544H281.952V172.349H282.007C282.111 172.078 282.285 171.866 282.529 171.711C282.774 171.554 283.069 171.476 283.412 171.476C283.774 171.476 284.071 171.561 284.302 171.732C284.537 171.9 284.712 172.132 284.828 172.427H284.872C284.991 172.136 285.183 171.906 285.449 171.735C285.717 171.562 286.042 171.476 286.424 171.476C286.911 171.476 287.296 171.629 287.578 171.936C287.86 172.241 288.001 172.687 288.001 173.274V176.784H287.394V173.274C287.394 172.86 287.287 172.549 287.076 172.342C286.865 172.135 286.586 172.032 286.24 172.032C285.84 172.032 285.532 172.155 285.316 172.4C285.1 172.646 284.992 172.957 284.992 173.335V176.784H284.371V173.219C284.371 172.864 284.272 172.578 284.074 172.359C283.876 172.141 283.598 172.032 283.238 172.032C282.997 172.032 282.78 172.091 282.587 172.209C282.396 172.328 282.244 172.492 282.133 172.704C282.024 172.913 281.969 173.154 281.969 173.427V176.784H281.362ZM290.573 176.836C290.439 176.836 290.323 176.788 290.225 176.692C290.13 176.595 290.082 176.479 290.082 176.344C290.082 176.208 290.13 176.092 290.225 175.996C290.323 175.901 290.439 175.853 290.573 175.853C290.709 175.853 290.825 175.901 290.921 175.996C291.016 176.092 291.064 176.208 291.064 176.344C291.064 176.433 291.041 176.515 290.996 176.59C290.953 176.665 290.894 176.725 290.819 176.771C290.746 176.814 290.664 176.836 290.573 176.836ZM295.196 176.894C294.727 176.894 294.319 176.776 293.971 176.542C293.625 176.308 293.357 175.987 293.166 175.58C292.975 175.173 292.879 174.709 292.879 174.188C292.879 173.663 292.976 173.195 293.17 172.786C293.365 172.376 293.636 172.055 293.981 171.824C294.327 171.589 294.728 171.472 295.185 171.472C295.536 171.472 295.853 171.541 296.137 171.677C296.422 171.811 296.656 172.001 296.84 172.246C297.027 172.49 297.144 172.775 297.192 173.1H296.578C296.514 172.804 296.36 172.552 296.117 172.342C295.876 172.131 295.569 172.025 295.196 172.025C294.861 172.025 294.566 172.116 294.309 172.298C294.052 172.477 293.85 172.729 293.705 173.052C293.562 173.373 293.49 173.745 293.49 174.168C293.49 174.593 293.561 174.969 293.702 175.297C293.843 175.622 294.041 175.877 294.295 176.061C294.552 176.245 294.852 176.338 295.196 176.338C295.428 176.338 295.639 176.294 295.83 176.208C296.023 176.119 296.185 175.994 296.315 175.833C296.447 175.671 296.535 175.479 296.581 175.256H297.195C297.149 175.572 297.037 175.854 296.857 176.102C296.68 176.348 296.449 176.541 296.165 176.682C295.883 176.823 295.56 176.894 295.196 176.894ZM301.014 176.894C300.561 176.894 300.161 176.779 299.813 176.549C299.467 176.319 299.196 176.002 299.001 175.597C298.805 175.19 298.707 174.72 298.707 174.188C298.707 173.651 298.805 173.179 299.001 172.772C299.196 172.363 299.467 172.044 299.813 171.817C300.161 171.587 300.561 171.472 301.014 171.472C301.466 171.472 301.865 171.587 302.211 171.817C302.556 172.047 302.827 172.365 303.023 172.772C303.22 173.179 303.32 173.651 303.32 174.188C303.32 174.72 303.222 175.19 303.026 175.597C302.83 176.002 302.559 176.319 302.211 176.549C301.865 176.779 301.466 176.894 301.014 176.894ZM301.014 176.338C301.377 176.338 301.685 176.24 301.938 176.044C302.19 175.849 302.382 175.588 302.511 175.263C302.643 174.937 302.709 174.579 302.709 174.188C302.709 173.797 302.643 173.437 302.511 173.11C302.382 172.782 302.19 172.52 301.938 172.322C301.685 172.124 301.377 172.025 301.014 172.025C300.652 172.025 300.343 172.124 300.089 172.322C299.837 172.52 299.644 172.782 299.512 173.11C299.383 173.437 299.318 173.797 299.318 174.188C299.318 174.579 299.383 174.937 299.512 175.263C299.644 175.588 299.837 175.849 300.089 176.044C300.342 176.24 300.65 176.338 301.014 176.338ZM305.133 176.784V171.544H305.723V172.349H305.778C305.882 172.078 306.056 171.866 306.3 171.711C306.545 171.554 306.84 171.476 307.183 171.476C307.545 171.476 307.842 171.561 308.074 171.732C308.308 171.9 308.483 172.132 308.599 172.427H308.643C308.762 172.136 308.954 171.906 309.22 171.735C309.488 171.562 309.813 171.476 310.196 171.476C310.682 171.476 311.066 171.629 311.349 171.936C311.631 172.241 311.772 172.687 311.772 173.274V176.784H311.164V173.274C311.164 172.86 311.059 172.549 310.847 172.342C310.636 172.135 310.357 172.032 310.011 172.032C309.611 172.032 309.303 172.155 309.087 172.4C308.871 172.646 308.763 172.957 308.763 173.335V176.784H308.142V173.219C308.142 172.864 308.043 172.578 307.845 172.359C307.647 172.141 307.369 172.032 307.009 172.032C306.768 172.032 306.551 172.091 306.358 172.209C306.167 172.328 306.015 172.492 305.904 172.704C305.795 172.913 305.74 173.154 305.74 173.427V176.784H305.133Z" fill="black"/>
<path d="M179.326 18.2544L186.371 15.3721L196.938 21.1368L207.506 26.9015V38.4309V49.9603L196.938 55.725L186.371 61.4897L179.326 58.6074V47.078V35.5485V26.9015V18.2544Z" fill="#D3BDBD"/>
<path d="M165.236 27.9503L174.629 23.7578V53.1055L165.236 48.913V27.9503Z" fill="#605E5E"/>
<path d="M186.371 23.7579C187.668 23.7579 188.719 22.8194 188.719 21.6617C188.719 20.504 187.668 19.5654 186.371 19.5654C185.074 19.5654 184.022 20.504 184.022 21.6617C184.022 22.8194 185.074 23.7579 186.371 23.7579Z" fill="#312E2E"/>
<path d="M186.371 57.298C187.668 57.298 188.719 56.3595 188.719 55.2017C188.719 54.044 187.668 53.1055 186.371 53.1055C185.074 53.1055 184.022 54.044 184.022 55.2017C184.022 56.3595 185.074 57.298 186.371 57.298Z" fill="#312E2E"/>
<g filter="url(#filter0_d_1001_1850)">
<path d="M224.122 32.1416V46.1166H222.484L214.87 35.1441H214.733V46.1166H213.041V32.1416H214.679L222.32 43.1417H222.457V32.1416H224.122ZM230.373 46.3622C229.709 46.3622 229.107 46.2373 228.565 45.9871C228.024 45.7323 227.594 45.3661 227.276 44.8884C226.957 44.4061 226.798 43.8238 226.798 43.1417C226.798 42.541 226.916 42.0541 227.153 41.6813C227.389 41.3035 227.706 41.0079 228.101 40.7943C228.497 40.5802 228.934 40.4211 229.411 40.3166C229.893 40.2074 230.378 40.121 230.865 40.0572C231.501 39.9753 232.017 39.9138 232.413 39.8731C232.814 39.8273 233.105 39.7524 233.287 39.6479C233.473 39.5429 233.566 39.3612 233.566 39.1018V39.0472C233.566 38.3739 233.382 37.8508 233.014 37.4778C232.65 37.1047 232.097 36.9182 231.356 36.9182C230.587 36.9182 229.984 37.0865 229.548 37.4232C229.111 37.7598 228.804 38.1192 228.627 38.5015L227.098 37.9554C227.371 37.3185 227.735 36.8227 228.19 36.4679C228.649 36.1085 229.15 35.8583 229.691 35.7172C230.237 35.5717 230.774 35.4989 231.301 35.4989C231.638 35.4989 232.024 35.5398 232.461 35.6217C232.902 35.699 233.327 35.8605 233.737 36.1062C234.151 36.3518 234.494 36.7226 234.767 37.2185C235.04 37.7143 235.176 38.3785 235.176 39.2109V46.1166H233.566V44.6974H233.485C233.375 44.9249 233.193 45.1681 232.939 45.4276C232.684 45.6866 232.345 45.9072 231.922 46.0893C231.499 46.2711 230.983 46.3622 230.373 46.3622ZM230.619 44.9157C231.256 44.9157 231.792 44.7904 232.229 44.5402C232.67 44.29 233.002 43.9672 233.225 43.5713C233.453 43.1755 233.566 42.7593 233.566 42.3227V40.8488C233.498 40.9307 233.348 41.0056 233.116 41.0741C232.889 41.1375 232.625 41.1943 232.324 41.2443C232.029 41.29 231.74 41.3308 231.458 41.3673C231.18 41.3992 230.955 41.4265 230.783 41.4491C230.364 41.5037 229.973 41.5925 229.609 41.7155C229.25 41.8335 228.959 42.0133 228.736 42.2543C228.517 42.491 228.408 42.8138 228.408 43.2235C228.408 43.7831 228.615 44.2058 229.029 44.4925C229.447 44.7746 229.977 44.9157 230.619 44.9157ZM239.726 39.8116V46.1166H238.116V32.1416H239.726V37.273H239.862C240.108 36.7317 240.476 36.3018 240.967 35.9834C241.464 35.6604 242.123 35.4989 242.946 35.4989C243.66 35.4989 244.286 35.6422 244.822 35.9288C245.359 36.2108 245.775 36.6453 246.071 37.2321C246.371 37.8144 246.522 38.556 246.522 39.4565V46.1166H244.911V39.566C244.911 38.7332 244.695 38.0896 244.263 37.6347C243.836 37.1752 243.242 36.9455 242.482 36.9455C241.955 36.9455 241.482 37.057 241.063 37.2799C240.649 37.5028 240.322 37.8281 240.081 38.2557C239.844 38.6832 239.726 39.2021 239.726 39.8116ZM252.551 46.3622C251.887 46.3622 251.284 46.2373 250.743 45.9871C250.202 45.7323 249.772 45.3661 249.454 44.8884C249.135 44.4061 248.976 43.8238 248.976 43.1417C248.976 42.541 249.094 42.0541 249.331 41.6813C249.567 41.3035 249.884 41.0079 250.279 40.7943C250.675 40.5802 251.112 40.4211 251.589 40.3166C252.071 40.2074 252.556 40.121 253.043 40.0572C253.679 39.9753 254.196 39.9138 254.591 39.8731C254.992 39.8273 255.283 39.7524 255.465 39.6479C255.651 39.5429 255.745 39.3612 255.745 39.1018V39.0472C255.745 38.3739 255.56 37.8508 255.192 37.4778C254.828 37.1047 254.275 36.9182 253.534 36.9182C252.765 36.9182 252.162 37.0865 251.726 37.4232C251.289 37.7598 250.982 38.1192 250.805 38.5015L249.276 37.9554C249.549 37.3185 249.913 36.8227 250.368 36.4679C250.827 36.1085 251.328 35.8583 251.869 35.7172C252.415 35.5717 252.952 35.4989 253.479 35.4989C253.816 35.4989 254.202 35.5398 254.639 35.6217C255.081 35.699 255.506 35.8605 255.915 36.1062C256.329 36.3518 256.673 36.7226 256.945 37.2185C257.218 37.7143 257.355 38.3785 257.355 39.2109V46.1166H255.745V44.6974H255.663C255.554 44.9249 255.371 45.1681 255.117 45.4276C254.862 45.6866 254.523 45.9072 254.1 46.0893C253.677 46.2711 253.161 46.3622 252.551 46.3622ZM252.797 44.9157C253.434 44.9157 253.97 44.7904 254.407 44.5402C254.848 44.29 255.18 43.9672 255.403 43.5713C255.631 43.1755 255.745 42.7593 255.745 42.3227V40.8488C255.676 40.9307 255.526 41.0056 255.294 41.0741C255.067 41.1375 254.803 41.1943 254.503 41.2443C254.207 41.29 253.918 41.3308 253.636 41.3673C253.359 41.3992 253.133 41.4265 252.96 41.4491C252.542 41.5037 252.151 41.5925 251.787 41.7155C251.428 41.8335 251.137 42.0133 250.914 42.2543C250.696 42.491 250.586 42.8138 250.586 43.2235C250.586 43.7831 250.793 44.2058 251.207 44.4925C251.626 44.7746 252.155 44.9157 252.797 44.9157ZM261.904 32.1416V46.1166H260.294V32.1416H261.904Z" fill="#605E5E"/>
</g>
<path d="M265.829 34.5786V32.1426H277.305V34.5786H273.027V46.1176H270.107V34.5786H265.829ZM282.397 46.3224C281.319 46.3224 280.391 46.1038 279.613 45.6672C278.84 45.226 278.244 44.6026 277.825 43.7975C277.407 42.9878 277.198 42.03 277.198 40.9248C277.198 39.8468 277.407 38.9002 277.825 38.0861C278.244 37.2717 278.833 36.6371 279.593 36.1822C280.357 35.7273 281.253 35.4999 282.281 35.4999C282.972 35.4999 283.616 35.6113 284.212 35.8342C284.812 36.0526 285.335 36.3824 285.781 36.8237C286.231 37.2649 286.582 37.8199 286.832 38.4886C287.082 39.1527 287.207 39.9309 287.207 40.8225V41.6208H278.357V39.8195H284.471C284.471 39.4006 284.38 39.0301 284.198 38.7069C284.016 38.384 283.764 38.1315 283.441 37.9496C283.122 37.7631 282.752 37.6698 282.328 37.6698C281.887 37.6698 281.496 37.7722 281.155 37.9769C280.818 38.177 280.555 38.4479 280.364 38.7887C280.172 39.1254 280.075 39.5009 280.07 39.9148V41.6277C280.07 42.1461 280.166 42.5942 280.357 42.972C280.552 43.3494 280.828 43.6407 281.182 43.8452C281.537 44.05 281.958 44.1522 282.445 44.1522C282.768 44.1522 283.063 44.1069 283.331 44.0158C283.6 43.9251 283.829 43.7883 284.021 43.6065C284.212 43.4243 284.357 43.2014 284.457 42.9378L287.146 43.1153C287.009 43.761 286.73 44.3252 286.306 44.8075C285.888 45.2852 285.347 45.658 284.683 45.9266C284.023 46.1902 283.261 46.3224 282.397 46.3224ZM292.092 46.3155C291.424 46.3155 290.828 46.1995 290.305 45.9673C289.781 45.731 289.368 45.3828 289.063 44.9235C288.763 44.4593 288.612 43.8817 288.612 43.1903C288.612 42.6081 288.719 42.1188 288.933 41.723C289.147 41.3275 289.438 41.0089 289.806 40.768C290.175 40.5266 290.593 40.3448 291.062 40.2219C291.535 40.0989 292.031 40.0128 292.549 39.9624C293.159 39.899 293.65 39.8398 294.023 39.7853C294.396 39.7261 294.667 39.6396 294.835 39.5259C295.003 39.4121 295.087 39.2438 295.087 39.0209V38.9801C295.087 38.5478 294.951 38.2134 294.678 37.9769C294.41 37.7403 294.028 37.622 293.532 37.622C293.009 37.622 292.593 37.738 292.283 37.97C291.974 38.1975 291.769 38.484 291.669 38.8299L288.981 38.6116C289.117 37.9746 289.386 37.4242 289.786 36.9601C290.186 36.4916 290.703 36.1322 291.335 35.882C291.972 35.6272 292.709 35.4999 293.546 35.4999C294.128 35.4999 294.685 35.5681 295.217 35.7046C295.754 35.841 296.229 36.0526 296.643 36.3392C297.062 36.6258 297.391 36.9943 297.632 37.4446C297.874 37.8905 297.994 38.425 297.994 39.0482V46.1176H295.238V44.6641H295.156C294.988 44.9916 294.762 45.2806 294.48 45.5308C294.198 45.7763 293.859 45.9697 293.464 46.1107C293.068 46.2471 292.611 46.3155 292.092 46.3155ZM292.925 44.3094C293.352 44.3094 293.73 44.2253 294.057 44.0569C294.385 43.884 294.642 43.6519 294.828 43.3609C295.015 43.0696 295.108 42.7399 295.108 42.3713V41.2591C295.017 41.3183 294.892 41.3729 294.733 41.4228C294.578 41.4682 294.403 41.5116 294.207 41.5523C294.012 41.5889 293.816 41.6231 293.621 41.655C293.425 41.6822 293.248 41.7072 293.088 41.7299C292.747 41.7799 292.449 41.8594 292.195 41.9689C291.94 42.0781 291.742 42.2257 291.601 42.4124C291.46 42.5942 291.39 42.8217 291.39 43.0946C291.39 43.4904 291.533 43.7929 291.819 44.0023C292.11 44.2068 292.479 44.3094 292.925 44.3094ZM300.249 46.1176V35.6363H303.019V37.4856H303.142C303.36 36.8714 303.724 36.3869 304.234 36.0321C304.743 35.6773 305.353 35.4999 306.062 35.4999C306.781 35.4999 307.393 35.6795 307.898 36.0389C308.403 36.3938 308.739 36.876 308.908 37.4856H309.017C309.23 36.8851 309.617 36.4051 310.177 36.0457C310.741 35.6818 311.407 35.4999 312.176 35.4999C313.153 35.4999 313.947 35.8115 314.557 36.4347C315.171 37.0534 315.478 37.9314 315.478 39.0685V46.1176H312.578V39.6419C312.578 39.0597 312.424 38.6227 312.114 38.3317C311.805 38.0406 311.418 37.895 310.954 37.895C310.427 37.895 310.015 38.0633 309.719 38.3999C309.424 38.7319 309.276 39.1711 309.276 39.7169V46.1176H306.458V39.5804C306.458 39.0662 306.31 38.6569 306.014 38.3522C305.724 38.0474 305.339 37.895 304.861 37.895C304.539 37.895 304.247 37.9769 303.988 38.1406C303.733 38.2999 303.531 38.5251 303.381 38.816C303.231 39.1027 303.156 39.4394 303.156 39.826V46.1176H300.249Z" fill="#D3BDBD"/>
<path d="M229.012 57.7341C228.619 57.7341 228.28 57.6415 227.997 57.4559C227.713 57.2702 227.494 57.0147 227.341 56.6888C227.189 56.3633 227.112 55.9909 227.112 55.5723C227.112 55.1465 227.19 54.771 227.347 54.4451C227.505 54.1177 227.725 53.8621 228.007 53.6781C228.291 53.4924 228.622 53.3998 229.001 53.3998C229.296 53.3998 229.561 53.4544 229.798 53.5635C230.034 53.6727 230.228 53.8256 230.379 54.022C230.53 54.2188 230.624 54.4478 230.66 54.7099H230.016C229.967 54.5189 229.858 54.3495 229.688 54.2023C229.521 54.0531 229.296 53.9786 229.012 53.9786C228.761 53.9786 228.541 54.0439 228.351 54.175C228.164 54.3041 228.017 54.487 227.912 54.7234C227.808 54.9582 227.756 55.2341 227.756 55.5504C227.756 55.8744 227.807 56.1565 227.909 56.3967C228.013 56.6369 228.158 56.8233 228.346 56.9563C228.535 57.0892 228.757 57.1557 229.012 57.1557C229.179 57.1557 229.331 57.1265 229.467 57.0681C229.604 57.0101 229.72 56.9263 229.814 56.8171C229.909 56.708 229.976 56.5769 230.016 56.424H230.66C230.624 56.6715 230.534 56.8944 230.39 57.0927C230.248 57.2895 230.06 57.4459 229.825 57.5623C229.592 57.6768 229.321 57.7341 229.012 57.7341ZM232.835 57.7453C232.57 57.7453 232.329 57.6949 232.112 57.595C231.896 57.4931 231.724 57.3467 231.596 57.1557C231.469 56.9628 231.405 56.7299 231.405 56.4566C231.405 56.2165 231.453 56.022 231.547 55.8729C231.642 55.7218 231.768 55.6035 231.926 55.5178C232.085 55.4325 232.26 55.3687 232.451 55.3268C232.643 55.283 232.837 55.2484 233.032 55.223C233.286 55.1903 233.493 55.1657 233.651 55.1492C233.811 55.1311 233.928 55.1012 234.001 55.0593C234.075 55.0174 234.113 54.9448 234.113 54.841V54.8191C234.113 54.5497 234.039 54.3406 233.892 54.1915C233.746 54.042 233.525 53.9674 233.228 53.9674C232.921 53.9674 232.68 54.0347 232.505 54.1696C232.33 54.3041 232.208 54.4478 232.137 54.6008L231.525 54.3825C231.634 54.1277 231.78 53.9294 231.962 53.7872C232.146 53.6435 232.346 53.5435 232.562 53.4871C232.781 53.429 232.995 53.3998 233.206 53.3998C233.341 53.3998 233.496 53.416 233.67 53.449C233.847 53.4798 234.017 53.5443 234.181 53.6427C234.346 53.7411 234.484 53.8894 234.593 54.0877C234.702 54.286 234.757 54.5516 234.757 54.8844V57.6469H234.113V57.0792H234.08C234.036 57.1699 233.963 57.2675 233.862 57.3713C233.759 57.4751 233.624 57.5631 233.455 57.6361C233.286 57.7087 233.079 57.7453 232.835 57.7453ZM232.934 57.1665C233.188 57.1665 233.403 57.1165 233.578 57.0162C233.754 56.9163 233.887 56.7872 233.976 56.6288C234.067 56.4705 234.113 56.3041 234.113 56.1292V55.5397C234.085 55.5723 234.025 55.6023 233.932 55.6296C233.842 55.6554 233.736 55.678 233.616 55.698C233.498 55.7161 233.382 55.7326 233.269 55.7472C233.158 55.7599 233.068 55.7706 232.999 55.7799C232.832 55.8018 232.675 55.8371 232.53 55.8863C232.386 55.9336 232.27 56.0055 232.18 56.1019C232.093 56.1965 232.049 56.3256 232.049 56.4897C232.049 56.7134 232.132 56.8825 232.298 56.9974C232.465 57.11 232.677 57.1665 232.934 57.1665ZM236.576 52.057V57.6469H235.932V52.057H236.576ZM238.4 52.057V57.6469H237.756V52.057H238.4ZM244.383 55.9328V53.4544H245.027V57.6469H244.383V56.937H244.34C244.241 57.15 244.089 57.3313 243.881 57.4805C243.674 57.6277 243.411 57.7014 243.095 57.7014C242.833 57.7014 242.6 57.6442 242.396 57.5297C242.193 57.4132 242.032 57.2383 241.916 57.0054C241.799 56.7706 241.741 56.4751 241.741 56.1185V53.4544H242.385V56.0746C242.385 56.3806 242.471 56.6242 242.642 56.806C242.815 56.9882 243.035 57.0792 243.302 57.0792C243.463 57.0792 243.626 57.0381 243.791 56.9563C243.958 56.8744 244.099 56.7487 244.211 56.5796C244.326 56.4105 244.383 56.1949 244.383 55.9328ZM249.176 54.3933L248.598 54.557C248.561 54.4605 248.508 54.3668 248.437 54.2761C248.367 54.183 248.273 54.1066 248.153 54.0466C248.033 53.9867 247.879 53.9567 247.691 53.9567C247.435 53.9567 247.221 54.0159 247.05 54.1339C246.881 54.2503 246.797 54.3986 246.797 54.5789C246.797 54.7392 246.855 54.8656 246.971 54.9582C247.087 55.0512 247.27 55.1285 247.517 55.1903L248.139 55.3433C248.514 55.434 248.793 55.5735 248.977 55.7607C249.161 55.9463 249.253 56.1857 249.253 56.4786C249.253 56.7188 249.184 56.9336 249.045 57.1227C248.909 57.3121 248.718 57.4612 248.472 57.5704C248.226 57.6795 247.941 57.7341 247.615 57.7341C247.188 57.7341 246.834 57.6415 246.554 57.4559C246.274 57.2702 246.096 56.9989 246.021 56.6423L246.633 56.4897C246.691 56.7153 246.801 56.8844 246.963 56.9974C247.127 57.11 247.341 57.1665 247.604 57.1665C247.904 57.1665 248.143 57.1027 248.319 56.9755C248.498 56.8463 248.587 56.6915 248.587 56.5112C248.587 56.366 248.536 56.2437 248.434 56.1457C248.332 56.0454 248.176 55.9709 247.965 55.9217L247.266 55.758C246.882 55.6669 246.6 55.5262 246.42 55.3348C246.242 55.1419 246.152 54.9009 246.152 54.6116C246.152 54.3752 246.219 54.1658 246.352 53.984C246.486 53.8018 246.669 53.6592 246.9 53.5555C247.133 53.4517 247.397 53.3998 247.691 53.3998C248.107 53.3998 248.432 53.4909 248.669 53.6727C248.907 53.8548 249.076 54.095 249.176 54.3933ZM252.384 57.6469V53.4544H253.028V57.6469H252.384ZM252.711 52.7557C252.586 52.7557 252.478 52.7127 252.386 52.6273C252.297 52.5416 252.253 52.439 252.253 52.3187C252.253 52.1988 252.297 52.0958 252.386 52.0105C252.478 51.9248 252.586 51.8822 252.711 51.8822C252.837 51.8822 252.944 51.9248 253.033 52.0105C253.124 52.0958 253.17 52.1988 253.17 52.3187C253.17 52.439 253.124 52.5416 253.033 52.6273C252.944 52.7127 252.837 52.7557 252.711 52.7557ZM256.074 53.4544V54.0001H253.814V53.4544H256.074ZM254.492 57.6469V52.8756C254.492 52.6354 254.548 52.4352 254.661 52.2753C254.774 52.1151 254.92 51.9952 255.1 51.9148C255.28 51.8349 255.47 51.7949 255.67 51.7949C255.829 51.7949 255.958 51.8076 256.058 51.833C256.158 51.8583 256.233 51.8822 256.282 51.9041L256.096 52.4609C256.064 52.4498 256.018 52.4363 255.96 52.4198C255.903 52.4037 255.829 52.3952 255.736 52.3952C255.523 52.3952 255.369 52.449 255.275 52.5562C255.182 52.6639 255.136 52.821 255.136 53.0286V57.6469H254.492ZM259.554 59.2191C259.444 59.2191 259.347 59.2099 259.261 59.1918C259.176 59.1753 259.117 59.1591 259.084 59.1426L259.248 58.575C259.404 58.615 259.542 58.6296 259.663 58.6184C259.783 58.6077 259.889 58.5538 259.982 58.4574C260.076 58.3628 260.163 58.2091 260.241 57.9962L260.361 57.6688L258.811 53.4544H259.51L260.667 56.7952H260.711L261.868 53.4544H262.567L260.787 58.2583C260.707 58.4747 260.608 58.6542 260.49 58.796C260.371 58.9397 260.234 59.0462 260.077 59.1153C259.923 59.1845 259.748 59.2191 259.554 59.2191ZM264.969 57.7341C264.591 57.7341 264.259 57.6442 263.973 57.4639C263.689 57.2837 263.468 57.032 263.307 56.708C263.149 56.384 263.07 56.0055 263.07 55.5723C263.07 55.1358 263.149 54.7545 263.307 54.4286C263.468 54.1031 263.689 53.8502 263.973 53.67C264.259 53.4897 264.591 53.3998 264.969 53.3998C265.348 53.3998 265.679 53.4897 265.963 53.67C266.249 53.8502 266.47 54.1031 266.629 54.4286C266.789 54.7545 266.869 55.1358 266.869 55.5723C266.869 56.0055 266.789 56.384 266.629 56.708C266.47 57.032 266.249 57.2837 265.963 57.4639C265.679 57.6442 265.348 57.7341 264.969 57.7341ZM264.969 57.1557C265.257 57.1557 265.494 57.0819 265.679 56.9344C265.865 56.7872 266.002 56.5935 266.091 56.3533C266.18 56.1131 266.225 55.8525 266.225 55.5723C266.225 55.2922 266.18 55.0312 266.091 54.7891C266.002 54.547 265.865 54.3514 265.679 54.2023C265.494 54.0531 265.257 53.9786 264.969 53.9786C264.682 53.9786 264.445 54.0531 264.26 54.2023C264.074 54.3514 263.937 54.547 263.848 54.7891C263.759 55.0312 263.714 55.2922 263.714 55.5723C263.714 55.8525 263.759 56.1131 263.848 56.3533C263.937 56.5935 264.074 56.7872 264.26 56.9344C264.445 57.0819 264.682 57.1557 264.969 57.1557ZM270.494 55.9328V53.4544H271.138V57.6469H270.494V56.937H270.45C270.352 57.15 270.199 57.3313 269.992 57.4805C269.784 57.6277 269.522 57.7014 269.206 57.7014C268.944 57.7014 268.711 57.6442 268.507 57.5297C268.303 57.4132 268.143 57.2383 268.027 57.0054C267.91 56.7706 267.852 56.4751 267.852 56.1185V53.4544H268.496V56.0746C268.496 56.3806 268.582 56.6242 268.753 56.806C268.925 56.9882 269.146 57.0792 269.413 57.0792C269.573 57.0792 269.736 57.0381 269.902 56.9563C270.069 56.8744 270.209 56.7487 270.322 56.5796C270.437 56.4105 270.494 56.1949 270.494 55.9328ZM276.171 59.3063C275.86 59.3063 275.593 59.2664 275.369 59.1864C275.145 59.108 274.959 59.0043 274.809 58.8751C274.662 58.7479 274.545 58.6111 274.457 58.4658L274.97 58.1054C275.029 58.1818 275.103 58.2691 275.192 58.3675C275.281 58.4674 275.403 58.5538 275.557 58.6269C275.714 58.7014 275.918 58.7387 276.171 58.7387C276.51 58.7387 276.789 58.6568 277.009 58.4931C277.23 58.3294 277.339 58.0727 277.339 57.7233V56.8717H277.285C277.238 56.9482 277.17 57.0427 277.083 57.1557C276.997 57.2664 276.874 57.3656 276.712 57.4532C276.552 57.5385 276.335 57.5815 276.062 57.5815C275.724 57.5815 275.42 57.5012 275.151 57.3413C274.883 57.1811 274.671 56.9482 274.515 56.6423C274.36 56.3367 274.283 55.9655 274.283 55.5289C274.283 55.0993 274.358 54.7253 274.509 54.4071C274.66 54.0866 274.87 53.8391 275.14 53.6646C275.409 53.4882 275.72 53.3998 276.073 53.3998C276.346 53.3998 276.562 53.4452 276.723 53.5362C276.884 53.6254 277.008 53.7273 277.094 53.8418C277.181 53.9548 277.248 54.0474 277.296 54.1204H277.361V53.4544H277.983V57.7668C277.983 58.1273 277.902 58.4201 277.738 58.6457C277.576 58.8732 277.358 59.04 277.083 59.1453C276.81 59.2529 276.506 59.3063 276.171 59.3063ZM276.15 57.0028C276.408 57.0028 276.626 56.9436 276.805 56.8252C276.983 56.7068 277.118 56.537 277.211 56.3148C277.304 56.0927 277.351 55.8271 277.351 55.5178C277.351 55.2157 277.305 54.9494 277.214 54.718C277.123 54.487 276.988 54.306 276.81 54.175C276.632 54.0439 276.411 53.9786 276.15 53.9786C275.877 53.9786 275.649 54.0474 275.467 54.1857C275.287 54.3241 275.152 54.5097 275.061 54.7426C274.972 54.9755 274.927 55.2341 274.927 55.5178C274.927 55.8091 274.972 56.0666 275.063 56.2902C275.156 56.5124 275.292 56.6869 275.473 56.8144C275.655 56.9401 275.88 57.0028 276.15 57.0028ZM280.92 57.7341C280.516 57.7341 280.168 57.6449 279.875 57.4666C279.584 57.2864 279.359 57.0354 279.201 56.7134C279.044 56.3894 278.966 56.0128 278.966 55.5835C278.966 55.1538 279.044 54.7753 279.201 54.4478C279.359 54.1185 279.579 53.8621 279.861 53.6781C280.145 53.4924 280.476 53.3998 280.855 53.3998C281.073 53.3998 281.289 53.4363 281.501 53.509C281.714 53.5816 281.908 53.7 282.083 53.8637C282.257 54.0259 282.397 54.2403 282.501 54.5078C282.604 54.7753 282.656 55.1046 282.656 55.4959V55.7691H279.424V55.2122H282.001C282.001 54.9755 281.954 54.7645 281.859 54.5789C281.766 54.3933 281.633 54.2468 281.461 54.1396C281.29 54.032 281.088 53.9786 280.855 53.9786C280.598 53.9786 280.376 54.042 280.189 54.1696C280.003 54.2949 279.86 54.459 279.76 54.6607C279.66 54.8629 279.61 55.0793 279.61 55.3102V55.6815C279.61 55.9982 279.665 56.2668 279.774 56.487C279.885 56.7053 280.039 56.8717 280.235 56.9862C280.432 57.0992 280.66 57.1557 280.92 57.1557C281.09 57.1557 281.242 57.1319 281.379 57.0846C281.517 57.0354 281.636 56.9628 281.736 56.8663C281.836 56.7679 281.914 56.6461 281.968 56.5005L282.59 56.6753C282.525 56.8863 282.415 57.0719 282.26 57.2318C282.106 57.3901 281.915 57.5139 281.687 57.6031C281.46 57.6907 281.204 57.7341 280.92 57.7341ZM285.459 53.4544V54.0001H283.286V53.4544H285.459ZM283.92 52.4498H284.564V56.4459C284.564 56.6277 284.59 56.7645 284.643 56.8552C284.697 56.9443 284.767 57.0047 284.85 57.0354C284.936 57.0646 285.026 57.0792 285.12 57.0792C285.191 57.0792 285.25 57.0754 285.295 57.0681C285.341 57.0593 285.377 57.0519 285.404 57.0466L285.535 57.625C285.492 57.6415 285.431 57.6576 285.352 57.6742C285.274 57.6922 285.175 57.7014 285.055 57.7014C284.873 57.7014 284.695 57.6622 284.52 57.5842C284.347 57.5058 284.203 57.3867 284.089 57.2264C283.976 57.0666 283.92 56.8644 283.92 56.6207V52.4498ZM289.233 52.057V57.6469H288.589V52.057H289.233ZM292.116 57.7341C291.738 57.7341 291.406 57.6442 291.12 57.4639C290.836 57.2837 290.614 57.032 290.454 56.708C290.295 56.384 290.216 56.0055 290.216 55.5723C290.216 55.1358 290.295 54.7545 290.454 54.4286C290.614 54.1031 290.836 53.8502 291.12 53.67C291.406 53.4897 291.738 53.3998 292.116 53.3998C292.495 53.3998 292.826 53.4897 293.109 53.67C293.395 53.8502 293.617 54.1031 293.775 54.4286C293.936 54.7545 294.016 55.1358 294.016 55.5723C294.016 56.0055 293.936 56.384 293.775 56.708C293.617 57.032 293.395 57.2837 293.109 57.4639C292.826 57.6442 292.495 57.7341 292.116 57.7341ZM292.116 57.1557C292.404 57.1557 292.64 57.0819 292.826 56.9344C293.011 56.7872 293.149 56.5935 293.238 56.3533C293.327 56.1131 293.372 55.8525 293.372 55.5723C293.372 55.2922 293.327 55.0312 293.238 54.7891C293.149 54.547 293.011 54.3514 292.826 54.2023C292.64 54.0531 292.404 53.9786 292.116 53.9786C291.829 53.9786 291.592 54.0531 291.406 54.2023C291.221 54.3514 291.084 54.547 290.994 54.7891C290.905 55.0312 290.861 55.2922 290.861 55.5723C290.861 55.8525 290.905 56.1131 290.994 56.3533C291.084 56.5935 291.221 56.7872 291.406 56.9344C291.592 57.0819 291.829 57.1557 292.116 57.1557ZM297.968 54.3933L297.389 54.557C297.353 54.4605 297.3 54.3668 297.228 54.2761C297.159 54.183 297.065 54.1066 296.944 54.0466C296.825 53.9867 296.671 53.9567 296.483 53.9567C296.227 53.9567 296.013 54.0159 295.842 54.1339C295.673 54.2503 295.588 54.3986 295.588 54.5789C295.588 54.7392 295.646 54.8656 295.763 54.9582C295.879 55.0512 296.061 55.1285 296.309 55.1903L296.931 55.3433C297.306 55.434 297.585 55.5735 297.769 55.7607C297.952 55.9463 298.045 56.1857 298.045 56.4786C298.045 56.7188 297.975 56.9336 297.837 57.1227C297.701 57.3121 297.51 57.4612 297.264 57.5704C297.018 57.6795 296.733 57.7341 296.407 57.7341C295.98 57.7341 295.626 57.6415 295.345 57.4559C295.065 57.2702 294.888 56.9989 294.813 56.6423L295.424 56.4897C295.483 56.7153 295.593 56.8844 295.755 56.9974C295.918 57.11 296.132 57.1665 296.396 57.1665C296.696 57.1665 296.934 57.1027 297.111 56.9755C297.29 56.8463 297.379 56.6915 297.379 56.5112C297.379 56.366 297.328 56.2437 297.226 56.1457C297.124 56.0454 296.968 55.9709 296.756 55.9217L296.058 55.758C295.674 55.6669 295.392 55.5262 295.211 55.3348C295.033 55.1419 294.944 54.9009 294.944 54.6116C294.944 54.3752 295.01 54.1658 295.143 53.984C295.278 53.8018 295.461 53.6592 295.692 53.5555C295.925 53.4517 296.189 53.3998 296.483 53.3998C296.898 53.3998 297.224 53.4909 297.461 53.6727C297.699 53.8548 297.868 54.095 297.968 54.3933ZM300.837 53.4544V54.0001H298.665V53.4544H300.837ZM299.298 52.4498H299.942V56.4459C299.942 56.6277 299.968 56.7645 300.021 56.8552C300.076 56.9443 300.145 57.0047 300.228 57.0354C300.314 57.0646 300.404 57.0792 300.499 57.0792C300.57 57.0792 300.628 57.0754 300.673 57.0681C300.719 57.0593 300.755 57.0519 300.783 57.0466L300.914 57.625C300.87 57.6415 300.809 57.6576 300.731 57.6742C300.652 57.6922 300.553 57.7014 300.433 57.7014C300.251 57.7014 300.073 57.6622 299.898 57.5842C299.725 57.5058 299.582 57.3867 299.467 57.2264C299.354 57.0666 299.298 56.8644 299.298 56.6207V52.4498Z" fill="white"/>
</g>
<defs>
<filter id="filter0_d_1001_1850" x="209.041" y="32.1416" width="56.8628" height="22.2207" filterUnits="userSpaceOnUse" color-interpolation-filters="sRGB">
<feFlood flood-opacity="0" result="BackgroundImageFix"/>
<feColorMatrix in="SourceAlpha" type="matrix" values="0 0 0 0 0 0 0 0 0 0 0 0 0 0 0 0 0 0 127 0" result="hardAlpha"/>
<feOffset dy="4"/>
<feGaussianBlur stdDeviation="2"/>
<feComposite in2="hardAlpha" operator="out"/>
<feColorMatrix type="matrix" values="0 0 0 0 0 0 0 0 0 0 0 0 0 0 0 0 0 0 0.25 0"/>
<feBlend mode="normal" in2="BackgroundImageFix" result="effect1_dropShadow_1001_1850"/>
<feBlend mode="normal" in="SourceGraphic" in2="effect1_dropShadow_1001_1850" result="shape"/>
</filter>
</defs>
</svg>
