<svg width="119" height="117" viewBox="0 0 119 117" fill="none" xmlns="http://www.w3.org/2000/svg">
<path d="M48.8396 40.749C47.005 40.0052 45.0217 39.7077 42.9888 39.7573C41.6996 39.7573 40.5592 39.7573 39.6171 39.8069C38.6254 39.7573 37.9313 39.8069 37.5842 39.8565V56.5165C38.2783 56.5661 38.9229 56.6156 39.5179 56.6156H42.1458C44.0796 56.6156 46.0133 56.3181 47.8479 55.7231C49.4346 55.2769 50.8229 54.3348 51.9138 53.0952C52.955 51.8556 53.4508 50.1698 53.4508 47.9881C53.5004 46.4511 53.1038 44.914 52.3104 43.5752C51.4675 42.2861 50.2775 41.2944 48.8396 40.749ZM97.9271 0.487305H21.0729C9.42083 0.487305 0 9.90814 0 21.5602V95.4344C0 107.087 9.42083 116.507 21.0729 116.507H97.9271C109.579 116.507 119 107.087 119 95.4344V21.5602C119 9.90814 109.579 0.487305 97.9271 0.487305ZM61.28 58.2519C59.3017 61.0286 56.525 63.1111 53.3021 64.3011C49.9304 65.5406 46.2117 65.9869 42.1458 65.9869C40.9558 65.9869 40.1625 65.9869 39.6667 65.9373C39.1708 65.8877 38.4767 65.8877 37.5346 65.8877V81.799C37.5842 82.1461 37.3363 82.4486 36.9892 82.4981H27.37C26.9733 82.4981 26.775 82.2949 26.775 81.8486V30.8323C26.775 30.4852 26.9237 30.2869 27.2708 30.2869C28.1138 30.2869 28.9071 30.2869 30.0475 30.2373C31.2375 30.1877 32.4771 30.1877 33.8158 30.1381C35.1546 30.0886 36.5925 30.0886 38.1296 30.039C39.6667 29.9894 41.1542 29.9894 42.6417 29.9894C46.7075 29.9894 50.0792 30.4852 52.8558 31.5265C55.335 32.3694 57.6158 33.7577 59.5 35.5923C61.0867 37.179 62.3262 39.1127 63.1196 41.2448C63.8584 43.3273 64.255 45.4594 64.255 47.6906C64.26 51.9548 63.2683 55.4752 61.28 58.2519ZM96.4396 77.5398C95.0513 79.5231 93.1125 81.0553 90.8863 81.9577C88.4567 82.994 85.4817 83.5344 81.9067 83.5344C79.6308 83.5344 77.3946 83.3411 75.1683 82.8948C73.4329 82.5924 71.6975 82.0519 70.1108 81.3081C69.7638 81.1148 69.5109 80.7677 69.5605 80.371V71.7435C69.5605 71.5997 69.615 71.3964 69.7637 71.2973C69.9075 71.1981 70.0612 71.2477 70.21 71.3468C72.1438 72.4873 74.1767 73.2856 76.3583 73.7764C78.2375 74.2723 80.2209 74.5202 82.2092 74.5202C84.0933 74.5202 85.4321 74.2673 86.3246 73.8211C87.1179 73.474 87.6633 72.6311 87.6633 71.7386C87.6633 71.0394 87.2667 70.3998 86.4733 69.7552C85.68 69.1156 84.0487 68.3718 81.6191 67.4198C79.0904 66.5273 76.7649 65.3373 74.5783 63.8548C73.0412 62.759 71.757 61.3261 70.805 59.6402C70.0166 58.0536 69.62 56.3181 69.6695 54.5778C69.6695 52.4457 70.2645 50.4128 71.3603 48.5782C72.5999 46.5948 74.4295 45.0082 76.5616 44.0165C78.8871 42.8315 81.8125 42.2861 85.3329 42.2861C87.3658 42.2861 89.4483 42.4348 91.4813 42.7323C92.9688 42.9306 94.4067 43.3273 95.7454 43.8727C95.9388 43.9223 96.1421 44.1206 96.2412 44.319C96.2908 44.5173 96.3404 44.7156 96.3404 44.914V52.9961C96.3404 53.1944 96.2412 53.3927 96.0925 53.4919C95.6462 53.5911 95.3983 53.5911 95.2 53.4919C93.7125 52.6986 92.1258 52.1531 90.44 51.8061C88.6054 51.4094 86.7708 51.1615 84.8867 51.1615C83.895 51.1119 82.8537 51.2606 81.9067 51.5086C81.2671 51.6573 80.7167 52.0044 80.3696 52.5002C80.1217 52.8969 79.973 53.3927 79.973 53.839C79.973 54.2852 80.1713 54.7315 80.4737 55.1281C80.92 55.6736 81.51 56.1198 82.1596 56.4669C83.295 57.0619 84.49 57.6073 85.675 58.1031C88.3575 58.9956 90.9358 60.2352 93.3158 61.7227C94.9521 62.759 96.2908 64.1523 97.228 65.8381C98.0213 67.4149 98.418 69.1602 98.3684 70.9403C98.4229 73.2756 97.7288 75.6011 96.4396 77.5398Z" fill="black"/>
</svg>
